<mxfile host="Electron" modified="2023-09-21T13:21:11.472Z" agent="Mozilla/5.0 (Windows NT 10.0; Win64; x64) AppleWebKit/537.36 (KHTML, like Gecko) draw.io/21.2.8 Chrome/112.0.5615.165 Electron/24.2.0 Safari/537.36" etag="qy9jDEh1GY5_oC_UwF_i" version="21.2.8" type="device">
  <diagram name="P치gina-1" id="pkyLj6tKCkLaayYyD-G6">
    <mxGraphModel dx="1480" dy="2035" grid="1" gridSize="10" guides="1" tooltips="1" connect="1" arrows="1" fold="1" page="1" pageScale="1" pageWidth="827" pageHeight="1169" math="0" shadow="0">
      <root>
        <mxCell id="0" />
        <mxCell id="1" parent="0" />
        <mxCell id="deubdvvVKYtZH3Jdtydz-4" style="rounded=0;orthogonalLoop=1;jettySize=auto;html=1;entryX=0;entryY=0.5;entryDx=0;entryDy=0;endArrow=none;endFill=0;" edge="1" parent="1" source="yr29gIws2wd24BPrNrxK-1" target="yr29gIws2wd24BPrNrxK-4">
          <mxGeometry relative="1" as="geometry" />
        </mxCell>
        <mxCell id="yr29gIws2wd24BPrNrxK-1" value="Funcion치rio" style="shape=umlActor;verticalLabelPosition=bottom;verticalAlign=top;html=1;outlineConnect=0;" parent="1" vertex="1">
          <mxGeometry x="240" y="20" width="30" height="60" as="geometry" />
        </mxCell>
        <mxCell id="deubdvvVKYtZH3Jdtydz-5" style="rounded=0;orthogonalLoop=1;jettySize=auto;html=1;entryX=0;entryY=1;entryDx=0;entryDy=0;endArrow=none;endFill=0;" edge="1" parent="1" source="yr29gIws2wd24BPrNrxK-3" target="deubdvvVKYtZH3Jdtydz-2">
          <mxGeometry relative="1" as="geometry" />
        </mxCell>
        <mxCell id="deubdvvVKYtZH3Jdtydz-6" style="rounded=0;orthogonalLoop=1;jettySize=auto;html=1;entryX=0;entryY=0.5;entryDx=0;entryDy=0;endArrow=none;endFill=0;" edge="1" parent="1" source="yr29gIws2wd24BPrNrxK-3" target="yr29gIws2wd24BPrNrxK-6">
          <mxGeometry relative="1" as="geometry" />
        </mxCell>
        <mxCell id="deubdvvVKYtZH3Jdtydz-7" style="rounded=0;orthogonalLoop=1;jettySize=auto;html=1;entryX=0;entryY=0.5;entryDx=0;entryDy=0;endArrow=none;endFill=0;" edge="1" parent="1" source="yr29gIws2wd24BPrNrxK-3" target="yr29gIws2wd24BPrNrxK-9">
          <mxGeometry relative="1" as="geometry" />
        </mxCell>
        <mxCell id="deubdvvVKYtZH3Jdtydz-8" style="rounded=0;orthogonalLoop=1;jettySize=auto;html=1;entryX=0;entryY=0;entryDx=0;entryDy=0;endArrow=none;endFill=0;" edge="1" parent="1" source="yr29gIws2wd24BPrNrxK-3" target="deubdvvVKYtZH3Jdtydz-1">
          <mxGeometry relative="1" as="geometry" />
        </mxCell>
        <mxCell id="deubdvvVKYtZH3Jdtydz-9" style="edgeStyle=orthogonalEdgeStyle;rounded=0;orthogonalLoop=1;jettySize=auto;html=1;endArrow=block;endFill=0;" edge="1" parent="1" source="yr29gIws2wd24BPrNrxK-3">
          <mxGeometry relative="1" as="geometry">
            <mxPoint x="255" y="100" as="targetPoint" />
          </mxGeometry>
        </mxCell>
        <mxCell id="yr29gIws2wd24BPrNrxK-3" value="Administrador" style="shape=umlActor;verticalLabelPosition=bottom;verticalAlign=top;html=1;outlineConnect=0;" parent="1" vertex="1">
          <mxGeometry x="240" y="370" width="30" height="60" as="geometry" />
        </mxCell>
        <mxCell id="yr29gIws2wd24BPrNrxK-4" value="Registrar Vendas&lt;br&gt;" style="ellipse;whiteSpace=wrap;html=1;" parent="1" vertex="1">
          <mxGeometry x="390" y="-10" width="120" height="80" as="geometry" />
        </mxCell>
        <mxCell id="yr29gIws2wd24BPrNrxK-5" value="Gerenciar Produtos&lt;br&gt;" style="ellipse;whiteSpace=wrap;html=1;" parent="1" vertex="1">
          <mxGeometry x="434" y="240" width="120" height="80" as="geometry" />
        </mxCell>
        <mxCell id="yr29gIws2wd24BPrNrxK-6" value="Gerenciar Fornecedores" style="ellipse;whiteSpace=wrap;html=1;" parent="1" vertex="1">
          <mxGeometry x="450" y="340" width="120" height="80" as="geometry" />
        </mxCell>
        <mxCell id="yr29gIws2wd24BPrNrxK-9" value="Gerar c칩digo de produtos" style="ellipse;whiteSpace=wrap;html=1;" parent="1" vertex="1">
          <mxGeometry x="434" y="440" width="120" height="80" as="geometry" />
        </mxCell>
        <mxCell id="yr29gIws2wd24BPrNrxK-21" value="" style="edgeStyle=none;orthogonalLoop=1;jettySize=auto;html=1;rounded=0;entryX=0;entryY=1;entryDx=0;entryDy=0;endArrow=none;endFill=0;" parent="1" target="yr29gIws2wd24BPrNrxK-5" edge="1" source="yr29gIws2wd24BPrNrxK-3">
          <mxGeometry width="100" relative="1" as="geometry">
            <mxPoint x="270" y="390" as="sourcePoint" />
            <mxPoint x="300" y="160" as="targetPoint" />
            <Array as="points" />
          </mxGeometry>
        </mxCell>
        <mxCell id="deubdvvVKYtZH3Jdtydz-1" value="Gerenciar Funcion치rios" style="ellipse;whiteSpace=wrap;html=1;" vertex="1" parent="1">
          <mxGeometry x="380" y="530" width="120" height="80" as="geometry" />
        </mxCell>
        <mxCell id="deubdvvVKYtZH3Jdtydz-2" value="Login" style="ellipse;whiteSpace=wrap;html=1;" vertex="1" parent="1">
          <mxGeometry x="360" y="150" width="120" height="80" as="geometry" />
        </mxCell>
        <mxCell id="deubdvvVKYtZH3Jdtydz-11" value="" style="rounded=0;whiteSpace=wrap;html=1;fillColor=none;" vertex="1" parent="1">
          <mxGeometry x="330" y="-30" width="260" height="670" as="geometry" />
        </mxCell>
      </root>
    </mxGraphModel>
  </diagram>
</mxfile>
